<svg version="1.1" viewBox="0.0 0.0 212.89238845144357 100.0" fill="none" stroke="none" stroke-linecap="square" stroke-miterlimit="10" xmlns:xlink="http://www.w3.org/1999/xlink" xmlns="http://www.w3.org/2000/svg"><clipPath id="p.0"><path d="m0 0l212.8924 0l0 100.0l-212.8924 0l0 -100.0z" clip-rule="nonzero"/></clipPath><g clip-path="url(#p.0)"><path fill="#ffffff" d="m0 0l212.8924 0l0 100.0l-212.8924 0z" fill-rule="evenodd"/><path fill="#000000" d="m92.87929 37.963257l-47.779526 -0.031497955l0 -12.566929l47.779526 0.031496048z" fill-rule="evenodd"/><path stroke="#000000" stroke-width="1.0" stroke-linejoin="round" stroke-linecap="butt" d="m92.87929 37.963257l-47.779526 -0.031497955l0 -12.566929l47.779526 0.031496048z" fill-rule="evenodd"/><path fill="#000000" d="m6.2345476 17.178177l32.56693 -10.80315l-16.976377 57.669292z" fill-rule="evenodd"/><path stroke="#000000" stroke-width="1.0" stroke-linejoin="round" stroke-linecap="butt" d="m6.2345476 17.178177l32.56693 -10.80315l-16.976377 57.669292z" fill-rule="evenodd"/><path fill="#000000" d="m32.777004 73.00787l0 0c0 -13.541847 9.525406 -24.519684 21.275589 -24.519684l0 0c5.642639 0 11.054165 2.5833168 15.044117 7.1816483c3.9899445 4.5983353 6.231476 10.835014 6.231476 17.338036l0 0c0 13.541847 -9.525406 24.519684 -21.275593 24.519684l0 0c-11.750183 0 -21.275589 -10.977837 -21.275589 -24.519684z" fill-rule="evenodd"/><path stroke="#000000" stroke-width="1.0" stroke-linejoin="round" stroke-linecap="butt" d="m32.777004 73.00787l0 0c0 -13.541847 9.525406 -24.519684 21.275589 -24.519684l0 0c5.642639 0 11.054165 2.5833168 15.044117 7.1816483c3.9899445 4.5983353 6.231476 10.835014 6.231476 17.338036l0 0c0 13.541847 -9.525406 24.519684 -21.275593 24.519684l0 0c-11.750183 0 -21.275589 -10.977837 -21.275589 -24.519684z" fill-rule="evenodd"/><path fill="#000000" fill-opacity="0.0" d="m89.19685 8.538057l144.7559 0l0 87.2756l-144.7559 0z" fill-rule="evenodd"/><path fill="#000000" d="m98.61873 76.27868l0 -4.859375q2.21875 0 3.59375 -0.296875q1.390625 -0.296875 2.140625 -1.078125q0.75 -0.78125 1.046875 -2.25q0.296875 -1.46875 0.296875 -3.75l0 -37.5l6.71875 0l0 37.609375q0 4.203125 -0.90625 6.875q-0.890625 2.671875 -3.171875 3.96875q-2.28125 1.28125 -6.484375 1.28125l-3.234375 0zm30.481857 -0.65625q-4.078125 0 -6.3125 -1.59375q-2.21875 -1.59375 -3.09375 -4.671875q-0.859375 -3.09375 -0.859375 -7.593746l0 -7.921875q0 -4.625 0.890625 -7.6875q0.90625 -3.0625 3.15625 -4.609375q2.25 -1.5625 6.21875 -1.5625q4.375 0 6.4375 1.796875q2.078125 1.796875 2.734375 5.1875q0.671875 3.390625 0.671875 8.125l0 2.828125l-13.6875 0l0 6.953121q0 2.109375 0.390625 3.4375q0.390625 1.3125 1.25 1.9375q0.875 0.625 2.265625 0.625q1.4375 0 2.1875 -0.6875q0.75 -0.6875 1.015625 -1.96875q0.265625 -1.296875 0.265625 -3.03125l0 -2.1093712l6.25 0l0 1.3281212q0 5.21875 -2.21875 8.21875q-2.21875 3.0 -7.5625 3.0zm-3.84375 -21.187496l7.375 0l0 -3.109375q0 -2.171875 -0.234375 -3.640625q-0.234375 -1.46875 -0.984375 -2.21875q-0.75 -0.75 -2.375 -0.75q-1.5625 0 -2.375 0.71875q-0.8125 0.71875 -1.109375 2.4375q-0.296875 1.703125 -0.296875 4.703125l0 1.859375zm19.91623 20.703121l0 -34.687496l6.421875 0l0 34.687496l-6.421875 0zm0 -39.843746l0 -6.718752l6.421875 0l0 6.718752l-6.421875 0zm15.36499 39.843746l0 -29.937496l-4.140625 0l0 -4.75l4.140625 0l0 -1.796875q0 -3.234375 0.5 -5.546875q0.515625 -2.312502 2.140625 -3.562502q1.625 -1.265625 4.859375 -1.265625q1.203125 0 2.125 0.09375q0.9375 0.078125 2.078125 0.328125l0 4.671877q-0.546875 -0.109375 -1.203125 -0.203125q-0.65625 -0.09375 -1.203125 -0.09375q-1.859375 0 -2.375 1.234375q-0.5 1.234375 -0.5 3.265625l0 2.875l5.28125 0l0 4.75l-5.28125 0l0 29.937496l-6.421875 0zm21.423111 0.484375q-2.046875 0 -3.609375 -1.171875q-1.5625 -1.171875 -2.46875 -3.0q-0.890625 -1.828125 -0.890625 -3.875q0 -3.234375 1.078125 -5.453121q1.09375 -2.21875 2.96875 -3.75q1.890625 -1.53125 4.375 -2.671875q2.5 -1.140625 5.265625 -2.21875l0 -2.46875q0 -2.09375 -0.25 -3.46875q-0.234375 -1.390625 -0.984375 -2.078125q-0.75 -0.6875 -2.25 -0.6875q-1.3125 0 -2.125 0.609375q-0.8125 0.59375 -1.171875 1.703125q-0.359375 1.109375 -0.359375 2.609375l0 1.734375l-6.359375 -0.234375q0.109375 -5.765625 2.625 -8.484375q2.53125 -2.734375 7.8125 -2.734375q5.15625 0 7.3125 2.828125q2.171875 2.8125 2.171875 8.140625l0 15.843746q0 1.625 0.078125 3.125q0.09375 1.5 0.234375 2.796875q0.15625 1.28125 0.28125 2.421875l-5.875 0q-0.1875 -0.953125 -0.453125 -2.421875q-0.265625 -1.484375 -0.390625 -2.671875q-0.59375 2.03125 -2.3125 3.8125q-1.703125 1.765625 -4.703125 1.765625zm2.515625 -5.53125q0.953125 0 1.796875 -0.53125q0.84375 -0.546875 1.5 -1.234375q0.65625 -0.6875 0.90625 -1.109375l0 -9.843746q-1.5 0.84375 -2.828125 1.6875q-1.3125 0.84375 -2.3125 1.78125q-0.984375 0.921875 -1.5625 2.09375q-0.5625 1.1562462 -0.5625 2.6562462q0 2.109375 0.78125 3.3125q0.78125 1.1875 2.28125 1.1875zm17.216232 5.046875l0 -34.687496l6.421875 0l0 34.687496l-6.421875 0zm0 -39.843746l0 -6.718752l6.421875 0l0 6.718752l-6.421875 0z" fill-rule="nonzero"/></g></svg>